# xmcd CD database file
#
# Track frame offsets:
#	182
#	24337
#	37395
#	52900
#	80902
#	94737
#	108287
#	131940
#	146075
#	167122
#
# Disc length: 2410 seconds
#
# Revision: 10
# Processed by: cddbd v1.5.2PL0 Copyright (c) Steve Scherf et al.
# Submitted via: CDex 1.79
#
DISCID=8d09680a
DTITLE=Otis Spann - The Biggest Thing Since Collossus
DYEAR=2011
DGENRE=Blues
TTITLE0=My Love Depends on You
TTITLE1=Walkin'
TTITLE2=It Was a Big Thing
TTITLE3=Temperature Is Rising (100.2 F)
TTITLE4=Dig You
TTITLE5=No More Doggin'
TTITLE6=Ain't Nobody's Business
TTITLE7=She Needs Some Loving
TTITLE8=I Need Some Air
TTITLE9=Someday Baby
EXTD=YEAR: 2011
EXTT0=
EXTT1=
EXTT2=
EXTT3=
EXTT4=
EXTT5=
EXTT6=
EXTT7=
EXTT8=
EXTT9=
PLAYORDER=
